<?xml version="1.0" standalone="no"?>
<!DOCTYPE svg PUBLIC "-//W3C//DTD SVG 20010904//EN"
 "http://www.w3.org/TR/2001/REC-SVG-20010904/DTD/svg10.dtd">
<svg version="1.0" xmlns="http://www.w3.org/2000/svg"
 width="192.000000pt" height="192.000000pt" viewBox="0 0 192.000000 192.000000"
 preserveAspectRatio="xMidYMid meet">
<metadata>
Created by potrace 1.16, written by Peter Selinger 2001-2019
</metadata>
<g transform="translate(0.000000,192.000000) scale(0.100000,-0.100000)"
fill="#000000" stroke="none">
<path d="M90 1903 c-30 -21 -52 -43 -73 -73 -16 -23 -17 -92 -17 -870 0 -916
-3 -857 50 -910 53 -53 -6 -50 910 -50 916 0 857 -3 910 50 53 53 50 -6 50
910 0 916 3 857 -50 910 -53 53 6 50 -910 50 -778 0 -847 -1 -870 -17z m546
-423 c12 -36 70 -204 129 -375 59 -171 125 -365 148 -432 23 -68 44 -123 47
-123 3 0 57 147 119 328 62 180 140 405 173 500 l61 173 86 -3 86 -3 21 -485
c12 -267 25 -531 29 -587 l8 -103 -72 0 c-65 0 -71 2 -75 23 -3 12 -7 191 -11
397 -3 206 -8 411 -12 454 l-6 79 -162 -474 -162 -474 -80 -3 -80 -3 -66 193
c-125 369 -257 752 -261 755 -4 4 -14 -280 -25 -692 l-6 -250 -72 -3 -73 -3 0
28 c0 15 4 89 10 163 5 74 16 322 25 550 9 228 18 421 21 428 3 9 26 12 91 10
l87 -3 22 -65z"/>
</g>
</svg>
